<?xml version="1.0" ?><svg data-name="Layer 2" id="aa0b9d4d-1b07-4862-baa7-bb7d62c6306f" fill="#023d82" viewBox="0 0 38 38" xmlns="http://www.w3.org/2000/svg"><path d="M19,37.44A18.44,18.44,0,1,1,37.44,19,18.461,18.461,0,0,1,19,37.44ZM19,3.06A15.94,15.94,0,1,0,34.94,19,15.958,15.958,0,0,0,19,3.06Z"/><circle cx="19" cy="26.242" r="1.878"/><path d="M18.969,21.569h0a1.2,1.2,0,0,1-1.2-1.145l-.425-8.883A1.652,1.652,0,0,1,19,9.82h0a1.652,1.652,0,0,1,1.65,1.731l-.487,8.881A1.2,1.2,0,0,1,18.969,21.569Z"/></svg>