<svg width="86" height="40" viewBox="0 0 86 40" fill="none" xmlns="http://www.w3.org/2000/svg">
<g clip-path="url(#clip0)">
<path d="M61.7789 29.7715H58.0566V18.7942C58.0566 18.7942 61.7795 19.0278 61.7795 21.1471L61.7789 29.7715Z" fill="#EDF3FB"/>
<path d="M58.2661 8.09521H67.3565C69.9377 8.09521 74.581 8.93826 74.581 14.839C74.581 20.8602 68.5574 21.1012 68.5574 21.1012L74.2479 29.7715H70.4861L65.5468 22.3053V18.7942C65.5468 18.7942 70.943 19.5357 70.943 14.7196C70.943 11.1041 67.1753 11.1041 67.1753 11.1041L60.1476 10.8637C60.1476 10.8637 58.2661 10.3833 58.2661 8.09521Z" fill="#EDF3FB"/>
<path d="M65.168 0.0270996H24.3126L34.6727 7.6139L0 20.0173L34.9263 32.6618L24.4604 40.0001L65.168 40.0076C76.6734 40.0076 86 31.0549 86 20.0173C86 8.97976 76.6734 0.0270996 65.168 0.0270996ZM65.168 35.5508C56.2271 35.5519 48.9805 28.597 48.9805 20.0173C48.9805 11.4377 56.2271 4.48277 65.168 4.48277C74.1089 4.48277 81.3567 11.4377 81.3567 20.0173C81.3567 28.597 74.1089 35.5519 65.168 35.5519V35.5508Z" fill="url(#paint0_linear)"/>
</g>
<defs>
<linearGradient id="paint0_linear" x1="86" y1="19.9999" x2="-1.64705e-09" y2="19.9999" gradientUnits="userSpaceOnUse">
<stop stop-color="#EDF3FB"/>
<stop offset="1" stop-color="#678EB5"/>
</linearGradient>
<clipPath id="clip0">
<rect width="86" height="40" fill="white"/>
</clipPath>
</defs>
</svg>
