<svg width="32" height="32" viewBox="0 0 32 32" fill="none" xmlns="http://www.w3.org/2000/svg">
<g clip-path="url(#clip0)">
<path d="M31.4982 19.8939C29.3613 28.4654 20.6797 33.6819 12.1072 31.5444C3.53824 29.4075 -1.67821 20.7254 0.459645 12.1546C2.59562 3.58214 11.2772 -1.6347 19.847 0.502212C28.4189 2.63913 33.6351 11.3222 31.4979 19.8941L31.4981 19.8939H31.4982Z" fill="#F7B91A"/>
<path d="M22.3155 11.87C22.0897 9.7289 20.2333 9.02761 17.896 8.84458L17.8685 5.87216L16.0592 5.88911L16.0861 8.78324C15.6104 8.78759 15.1243 8.8015 14.6413 8.81559L14.6147 5.90224L12.8064 5.91892L12.8332 8.89053C12.4417 8.90217 12.0569 8.91308 11.6819 8.91672L11.6816 8.90743L9.18613 8.92953L9.20444 10.862C9.20444 10.862 10.5403 10.8242 10.5183 10.8489C11.2511 10.8423 11.4936 11.2657 11.5665 11.6321L11.5979 15.0184C11.6484 15.0182 11.7144 15.0197 11.7893 15.0293C11.7289 15.0299 11.6646 15.0302 11.5981 15.0314L11.6414 19.7753C11.6115 20.0062 11.4793 20.3753 10.9672 20.3808C10.9907 20.4011 9.65207 20.3927 9.65207 20.3927L9.31242 22.5569L11.6671 22.535C12.1053 22.5316 12.5364 22.5351 12.9598 22.5337L12.9884 25.54L14.7957 25.5236L14.7682 22.549C15.2646 22.5547 15.7447 22.5542 16.2137 22.5495L16.2402 25.5103L18.0496 25.4933L18.0224 22.4923C21.0627 22.2897 23.1846 21.5039 23.4225 18.6448C23.6147 16.3427 22.5233 15.3264 20.7928 14.9277C21.837 14.3838 22.4842 13.4366 22.3162 11.87L22.3156 11.8698L22.3155 11.87ZM19.8435 18.3215C19.8652 20.5681 16.0161 20.3481 14.7898 20.3606L14.7536 16.3774C15.9801 16.3664 19.822 15.9782 19.8436 18.3215L19.8435 18.3215ZM18.9501 12.7095C18.9684 14.7534 15.7581 14.5445 14.7367 14.554L14.7035 10.9415C15.7249 10.932 18.9303 10.5777 18.9502 12.7094L18.9501 12.7095Z" fill="white"/>
</g>
<defs>
<clipPath id="clip0">
<rect width="32" height="32" fill="white"/>
</clipPath>
</defs>
</svg>
