<svg width="32" height="32" viewBox="0 0 32 32" fill="none" xmlns="http://www.w3.org/2000/svg">
<g clip-path="url(#clip0)">
<path d="M31.4982 19.8939C29.3613 28.4654 20.6797 33.6819 12.1072 31.5444C3.53824 29.4075 -1.67821 20.7254 0.459645 12.1546C2.59562 3.58214 11.2772 -1.6347 19.847 0.502212C28.4189 2.63913 33.6351 11.3222 31.4979 19.8941L31.4981 19.8939H31.4982Z" fill="#F7931A"/>
<path d="M23.0554 13.7204C23.3738 11.5912 21.7528 10.4466 19.5361 9.68311L20.2552 6.79885L18.4994 6.36137L17.7994 9.16969C17.3378 9.05457 16.8638 8.94609 16.3927 8.83856L17.0978 6.01171L15.3432 5.57422L14.6237 8.45754C14.2417 8.37057 13.8666 8.28462 13.5026 8.19406L13.5046 8.18499L11.0834 7.58037L10.6164 9.45561C10.6164 9.45561 11.919 9.7542 11.8915 9.77258C12.6025 9.95003 12.7311 10.4207 12.7097 10.7937L11.8906 14.0796C11.9396 14.092 12.0031 14.11 12.0731 14.1381C12.0146 14.1236 11.9522 14.1077 11.8876 14.0922L10.7394 18.6952C10.6525 18.9112 10.432 19.2354 9.9349 19.1123C9.95249 19.1378 8.6588 18.7939 8.6588 18.7939L7.78711 20.8036L10.0719 21.3732C10.497 21.4798 10.9135 21.5913 11.3237 21.6962L10.5971 24.6135L12.3509 25.051L13.0704 22.1646C13.5494 22.2947 14.0144 22.4147 14.4695 22.5278L13.7525 25.4005L15.5083 25.838L16.2347 22.9261C19.2286 23.4927 21.4798 23.2643 22.4274 20.5563C23.1909 18.3761 22.3894 17.1185 20.8143 16.2984C21.9615 16.0339 22.8256 15.2793 23.056 13.7207L23.0554 13.7203L23.0554 13.7204ZM19.0439 19.3455C18.5013 21.5258 14.8305 20.3472 13.6403 20.0517L14.6045 16.1867C15.7945 16.4838 19.611 17.0718 19.044 19.3455H19.0439ZM19.5869 13.6888C19.0919 15.672 16.0366 14.6645 15.0455 14.4174L15.9197 10.9121C16.9108 11.1592 20.1025 11.6203 19.5871 13.6888H19.5869Z" fill="white"/>
</g>
<defs>
<clipPath id="clip0">
<rect width="32" height="32" fill="white"/>
</clipPath>
</defs>
</svg>
