<svg xmlns="http://www.w3.org/2000/svg" width="26" height="26" viewBox="0 0 26 26" fill="none">
<rect width="26" height="26" rx="13" fill="white"/>
<g clip-path="url(#clip0_5958_63230)">
<path d="M13 23C18.5228 23 23 18.5228 23 13C23 7.47715 18.5228 3 13 3C7.47715 3 3 7.47715 3 13C3 18.5228 7.47715 23 13 23Z" fill="#F7931A"/>
<path d="M17.395 11.7625C17.5913 10.4525 16.5931 9.74813 15.2294 9.27813L15.6719 7.50313L14.5919 7.23438L14.1606 8.9625C13.8769 8.89125 13.5856 8.825 13.295 8.75875L13.7294 7.01938L12.6494 6.75L12.2069 8.52438C11.9719 8.47063 11.7406 8.41813 11.5169 8.36188L11.5181 8.35625L10.0281 7.98438L9.74063 9.13813C9.74063 9.13813 10.5425 9.32188 10.5256 9.33313C10.9631 9.4425 11.0419 9.73188 11.0288 9.96188L10.525 11.9838C10.555 11.9913 10.5938 12.0025 10.6375 12.0194L10.5231 11.9913L9.81688 14.8238C9.76313 14.9563 9.6275 15.1556 9.32125 15.08C9.3325 15.0956 8.53625 14.8844 8.53625 14.8844L8 16.1206L9.40625 16.4713C9.6675 16.5369 9.92375 16.6056 10.1756 16.67L9.72875 18.465L10.8081 18.7338L11.2506 16.9588C11.5456 17.0381 11.8319 17.1119 12.1119 17.1819L11.6706 18.9494L12.7506 19.2181L13.1975 17.4269C15.04 17.7756 16.425 17.635 17.0081 15.9688C17.4781 14.6275 16.985 13.8531 16.0156 13.3488C16.7219 13.1863 17.2531 12.7219 17.395 11.7625V11.7625ZM14.9263 15.2238C14.5931 16.5656 12.3338 15.84 11.6013 15.6581L12.195 13.28C12.9275 13.4631 15.2756 13.825 14.9263 15.2238ZM15.2606 11.7431C14.9563 12.9638 13.0763 12.3431 12.4669 12.1913L13.0044 10.035C13.6138 10.1869 15.5781 10.47 15.2606 11.7431Z" fill="white"/>
</g>
<circle cx="18.9165" cy="19.25" r="3.75" fill="black"/>
<path d="M20.6216 19.8681L20.6216 18.5664L19.3337 19.8681L20.6216 19.8681Z" fill="white"/>
<path d="M20.6216 19.8698L20.6216 21.1992L19.3337 19.8698L20.6216 19.8698Z" fill="white"/>
<path d="M19.4568 16.8672L16.4728 19.8246L17.6735 20.9446L20.6045 17.9697L19.4568 16.8672Z" fill="white"/>
<defs>
<clipPath id="clip0_5958_63230">
<rect width="20" height="20" fill="white" transform="translate(3 3)"/>
</clipPath>
</defs>
</svg>
