<svg width="27" height="27" viewBox="0 0 27 27" fill="none" xmlns="http://www.w3.org/2000/svg">
<rect width="26.1236" height="26.1245" rx="13.0618" fill="white"/>
<g clip-path="url(#clip0_5958_63257)">
<path d="M23.0236 13.0618C23.0236 18.5635 18.5635 23.0236 13.0618 23.0236C7.56004 23.0236 3.1 18.5635 3.1 13.0618C3.1 7.56004 7.56004 3.1 13.0618 3.1C18.5635 3.1 23.0236 7.56004 23.0236 13.0618Z" fill="white" stroke="#C2C2C2" stroke-width="0.2"/>
</g>
<circle cx="19.0266" cy="19.3513" r="3.77317" fill="black"/>
<path d="M20.7427 19.9816L20.7427 18.6719L19.4469 19.9816L20.7427 19.9816Z" fill="white"/>
<path d="M20.7427 19.9827L20.7427 21.3203L19.4469 19.9827L20.7427 19.9827Z" fill="white"/>
<path d="M19.5703 16.957L16.5679 19.9328L17.776 21.0597L20.7251 18.0663L19.5703 16.957Z" fill="white"/>
<path d="M13.4802 6L13.3994 6.2745V14.2392L13.4802 14.3199L17.1773 12.1345L13.4802 6Z" fill="#343434"/>
<path d="M13.4804 6L9.7832 12.1345L13.4804 14.3199V10.454V6Z" fill="#8C8C8C"/>
<path d="M13.4801 15.0163L13.4346 15.0718V17.909L13.4801 18.0419L17.1794 12.832L13.4801 15.0163Z" fill="#3C3C3B"/>
<path d="M13.4804 18.0419V15.0163L9.7832 12.832L13.4804 18.0419Z" fill="#8C8C8C"/>
<path d="M13.4805 14.319L17.1775 12.1336L13.4805 10.4531V14.319Z" fill="#141414"/>
<path d="M9.7832 12.1336L13.4804 14.319V10.4531L9.7832 12.1336Z" fill="#393939"/>
<defs>
<clipPath id="clip0_5958_63257">
<rect width="20.1236" height="20.1236" fill="white" transform="translate(3 3)"/>
</clipPath>
</defs>
</svg>
