<svg width="26" height="26" viewBox="0 0 26 26" fill="none" xmlns="http://www.w3.org/2000/svg">
<rect width="26" height="26" rx="13" fill="white"/>
<g clip-path="url(#clip0_5958_63241)">
<path d="M13 23C18.5228 23 23 18.5228 23 13C23 7.47715 18.5228 3 13 3C7.47715 3 3 7.47715 3 13C3 18.5228 7.47715 23 13 23Z" fill="#3B8EE8"/>
<path d="M13.0151 6.33594V18.6113" stroke="white" stroke-linecap="round" stroke-linejoin="round"/>
<path d="M15.8047 8.56641H11.6199C11.102 8.56641 10.6052 8.77216 10.239 9.1384C9.87274 9.50464 9.66699 10.0014 9.66699 10.5193C9.66699 11.0373 9.87274 11.534 10.239 11.9002C10.6052 12.2665 11.102 12.4722 11.6199 12.4722H14.4098C14.9277 12.4722 15.4244 12.678 15.7907 13.0442C16.1569 13.4104 16.3627 13.9072 16.3627 14.4251C16.3627 14.9431 16.1569 15.4398 15.7907 15.806C15.4244 16.1723 14.9277 16.378 14.4098 16.378H9.66699" stroke="white" stroke-linecap="round" stroke-linejoin="round"/>
</g>
<circle cx="18.9165" cy="19.25" r="3.75" fill="black"/>
<path d="M20.6216 19.8681L20.6216 18.5664L19.3337 19.8681L20.6216 19.8681Z" fill="white"/>
<path d="M20.6216 19.8698L20.6216 21.1992L19.3337 19.8698L20.6216 19.8698Z" fill="white"/>
<path d="M19.4568 16.8672L16.4728 19.8246L17.6735 20.9446L20.6045 17.9697L19.4568 16.8672Z" fill="white"/>
<defs>
<clipPath id="clip0_5958_63241">
<rect width="20" height="20" fill="white" transform="translate(3 3)"/>
</clipPath>
</defs>
</svg>
