<?xml version="1.0" encoding="UTF-8"?>
<svg version="1.1" id="RIC-Token" xmlns="http://www.w3.org/2000/svg" xmlns:xlink="http://www.w3.org/1999/xlink" x="0px" y="0px"
	 viewBox="0 0 512 512" style="enable-background:new 0 0 512 512;" xml:space="preserve" width="32px" height="22px" >
<style type="text/css">
	.st0{fill:url(#Outer_00000016060414780799562500000011062370489080189596_);}
	.st1{fill:#FFFFFF;}
	.st2{fill:url(#Inner_00000088107344195527696250000017666987429891366532_);}
	.st3{fill:url(#SVGID_1_);}
	.st4{fill:url(#SVGID_00000132048898952200745750000015942618285331293826_);}
</style>
<linearGradient id="Outer_00000082330828005943844690000016762870866760817084_" gradientUnits="userSpaceOnUse" x1="6" y1="256" x2="506" y2="256" gradientTransform="matrix(-1 0 0 -1 512 512)">
	<stop  offset="0" style="stop-color:#6295C3"/>
	<stop  offset="1" style="stop-color:#B4CAE2"/>
</linearGradient>
<circle id="Outer" style="fill:url(#Outer_00000082330828005943844690000016762870866760817084_);" cx="256" cy="256" r="250"/>
<circle id="White" class="st1" cx="256" cy="256" r="240"/>
<linearGradient id="Inner_00000177482360792607536340000014573850481183307169_" gradientUnits="userSpaceOnUse" x1="26" y1="256" x2="486" y2="256">
	<stop  offset="0" style="stop-color:#6295C3"/>
	<stop  offset="1" style="stop-color:#B4CAE2"/>
</linearGradient>
<circle id="Inner" style="fill:url(#Inner_00000177482360792607536340000014573850481183307169_);" cx="256" cy="256" r="230"/>
<g id="R">
	<g id="R-Small">
		<path class="st1" d="M196.4938,413.68497h-51.82234V254.42113c0,0,51.83067,3.38878,51.83067,34.13747L196.4938,413.68497z"/>
		<linearGradient id="SVGID_1_" gradientUnits="userSpaceOnUse" x1="139.67145" y1="333.88425" x2="201.50214" y2="333.88425">
			<stop  offset="0" style="stop-color:#6295C3"/>
			<stop  offset="1" style="stop-color:#B4CAE2"/>
		</linearGradient>
		<path class="st3" d="M144.67145,254.42113c0,0,51.83069,3.38878,51.83069,34.13747l-0.00835,125.12637h-51.82234V254.42113
			 M139.67145,249.08354v5.33759v159.26384v5h5h51.82234h4.99966l0.00034-4.99963l0.00835-125.12637
			c0-10.36761-5.06825-24.56055-29.21341-33.30127c-13.47021-4.87634-26.73306-5.78943-27.29106-5.8259L139.67145,249.08354
			L139.67145,249.08354z"/>
	</g>
	<g id="R-Big">
		<path class="st1" d="M147.58563,99.19554h126.55844c35.93597,0,100.58069,12.23121,100.58069,97.84134
			c0,87.35863-83.8616,90.85564-83.8616,90.85564l79.22397,125.79245h-52.37192l-68.76627-108.32404v-50.9398
			c0,0,75.12741,10.75749,75.12741-59.11612c0-52.45514-52.45514-52.45514-52.45514-52.45514l-97.84135-3.48868
			C173.77986,139.36119,147.58563,132.39215,147.58563,99.19554z"/>
		
			<linearGradient id="SVGID_00000051352077475951906350000010383833808040646033_" gradientUnits="userSpaceOnUse" x1="142.58562" y1="256.44025" x2="379.72476" y2="256.44025">
			<stop  offset="0" style="stop-color:#6295C3"/>
			<stop  offset="1" style="stop-color:#B4CAE2"/>
		</linearGradient>
		<path style="fill:url(#SVGID_00000051352077475951906350000010383833808040646033_);" d="M274.14407,99.19555
			c35.93597,0,100.58069,12.2312,100.58069,97.84135c0,87.35861-83.8616,90.85559-83.8616,90.85559l79.22394,125.79245h-52.37189
			l-68.76625-108.32401v-50.93979c0,0,4.16429,0.59622,10.53099,0.59622c20.67819,0,64.59641-6.28789,64.59641-59.71237
			c0-52.45514-52.45514-52.45514-52.45514-52.45514l-97.84135-3.48866c0,0-26.19424-6.96904-26.19424-40.16564H274.14407
			 M274.14407,94.19555H147.58562h-5v5c0,18.9892,8.02269,30.19329,14.7529,36.24854
			c7.35904,6.62105,14.8409,8.66525,15.15579,8.74901l0.5444,0.14485l0.563,0.02005l97.84134,3.48865l0.08905,0.0032h0.08911
			c1.92795,0.00795,47.45514,0.73199,47.45514,47.45514c0,47.60435-37.33899,54.71236-59.59641,54.71236
			c-5.87819,0-9.78929-0.54111-9.82809-0.54655l-5.6971-0.80209l-0.0058,5.75244v50.93979v1.453l0.77875,1.22678l68.76625,108.32397
			l1.47296,2.32025h2.74829h52.37189h9.05801l-4.82715-7.66458l-74.98984-119.06949
			c8.40564-1.3497,22.11127-4.60233,35.9173-12.36893c20.29129-11.41486,44.47934-35.00154,44.47934-82.54504
			c0-39.26625-13.13571-67.9268-39.04221-85.18565C318.77817,97.25864,292.40842,94.19555,274.14407,94.19555L274.14407,94.19555z"
			/>
	</g>
</g>
</svg>
