<?xml version="1.0" encoding="UTF-8"?>
<svg xmlns="http://www.w3.org/2000/svg" xmlns:xlink="http://www.w3.org/1999/xlink" width="32px" height="22px" viewBox="0 0 50 22" version="1.1">
<g id="surface1">
<path style=" stroke:none;fill-rule:nonzero;fill:rgb(121, 170, 217);fill-opacity:1;" d="M 32.324219 16.375 L 30.378906 16.375 L 30.378906 10.335938 C 30.378906 10.335938 32.328125 10.464844 32.328125 11.632812 Z M 32.324219 16.375 "/>
<path style=" stroke:none;fill-rule:nonzero;fill:rgb(121, 170, 217);fill-opacity:1;" d="M 30.488281 4.453125 L 35.246094 4.453125 C 36.59375 4.453125 39.023438 4.917969 39.023438 8.160156 C 39.023438 11.472656 35.871094 11.605469 35.871094 11.605469 L 38.851562 16.375 L 36.882812 16.375 L 34.296875 12.269531 L 34.296875 10.335938 C 34.296875 10.335938 37.121094 10.746094 37.121094 8.097656 C 37.121094 6.105469 35.148438 6.105469 35.148438 6.105469 L 31.472656 5.976562 C 31.472656 5.976562 30.488281 5.710938 30.488281 4.453125 Z M 30.488281 4.453125 "/>
<path style=" stroke:none;fill-rule:nonzero;fill:rgb(121, 170, 217);fill-opacity:1;" d="M 34.097656 0.015625 L 12.722656 0.015625 L 18.144531 4.1875 L 0 11.007812 L 18.273438 17.964844 L 12.800781 22 L 34.097656 22.003906 C 40.121094 22.003906 45 17.082031 45 11.007812 C 45 4.9375 40.121094 0.015625 34.097656 0.015625 Z M 34.097656 19.554688 C 29.421875 19.554688 25.628906 15.726562 25.628906 11.007812 C 25.628906 6.289062 29.421875 2.464844 34.097656 2.464844 C 38.777344 2.464844 42.570312 6.289062 42.570312 11.007812 C 42.570312 15.726562 38.777344 19.554688 34.097656 19.554688 Z M 34.097656 19.554688 "/>
</g>
</svg>
