<?xml version="1.0" standalone="no"?>
<!DOCTYPE svg PUBLIC "-//W3C//DTD SVG 20010904//EN"
 "http://www.w3.org/TR/2001/REC-SVG-20010904/DTD/svg10.dtd">
<svg version="1.0" xmlns="http://www.w3.org/2000/svg"
 width="250.000000pt" height="250.000000pt" viewBox="0 0 250.000000 250.000000"
 preserveAspectRatio="xMidYMid meet">
<metadata>
Created by potrace 1.10, written by Peter Selinger 2001-2011
</metadata>
<g transform="translate(0.000000,250.000000) scale(0.100000,-0.100000)"
fill="#000000" stroke="none">
<path d="M0 1250 l0 -1250 1250 0 1250 0 0 1250 0 1250 -1250 0 -1250 0 0
-1250z m1228 752 l153 -77 -36 -35 c-19 -19 -35 -37 -35 -40 0 -4 51 -15 113
-24 246 -39 354 -64 418 -96 87 -44 227 -137 239 -160 25 -46 4 -245 -34 -322
l-23 -48 47 -267 c26 -148 50 -285 53 -305 l6 -38 -121 0 -122 0 28 28 27 29
-107 226 c-95 202 -109 226 -128 222 -18 -4 -201 -29 -482 -67 l-80 -10 -107
-214 -107 -214 -121 0 -121 0 14 22 c52 81 75 143 147 393 l80 280 -52 53 -53
53 -121 -27 -121 -27 -11 -87 c-16 -128 -16 -134 24 -169 20 -17 40 -31 44
-31 5 0 23 16 41 36 17 20 33 35 34 33 9 -9 25 -174 19 -180 -5 -3 -34 -11
-67 -17 -58 -12 -134 -2 -162 19 -6 5 -45 66 -87 136 l-76 128 27 240 27 240
94 121 94 121 120 12 119 12 112 64 c61 35 118 63 126 64 8 0 84 -35 168 -77z
m524 -1073 l64 -111 -13 -101 c-7 -56 -12 -108 -13 -114 0 -10 -31 -13 -120
-13 l-121 0 26 37 c24 36 25 43 25 200 l0 162 33 25 c17 14 37 26 44 26 6 0
40 -50 75 -111z m-439 -118 c21 -103 37 -195 37 -205 0 -14 -16 -16 -127 -15
-100 0 -123 3 -105 11 27 14 27 10 -3 119 l-26 90 43 82 c41 78 45 82 88 93
25 7 48 12 51 13 3 1 22 -84 42 -188z"/>
</g>
</svg>
