<svg width="37" height="32" viewBox="0 0 37 32" fill="none" xmlns="http://www.w3.org/2000/svg">
<g clip-path="url(#clip0)">
<path fill-rule="evenodd" clip-rule="evenodd" d="M6.77413 0.157165L0.027736 14.246C0.00206397 14.2984 -0.00607132 14.3576 0.00451979 14.4149C0.0151109 14.4722 0.0438728 14.5247 0.0865993 14.5646L18.307 31.9231C18.3588 31.9724 18.4277 32 18.4994 32C18.5711 32 18.64 31.9724 18.6918 31.9231L36.9122 14.5657C36.9549 14.5258 36.9837 14.4733 36.9943 14.416C37.0049 14.3586 36.9967 14.2995 36.9711 14.2471L30.2247 0.158249C30.2029 0.110933 30.1679 0.0708501 30.1238 0.0427911C30.0797 0.0147322 30.0285 -0.000116069 29.9761 2.09732e-05H7.02485C6.97226 -0.000629455 6.92061 0.0138611 6.87613 0.0417447C6.83164 0.0696283 6.79622 0.109714 6.77413 0.157165Z" fill="#50AF95"/>
<path fill-rule="evenodd" clip-rule="evenodd" d="M20.841 15.6927C20.7102 15.7024 20.0344 15.7425 18.5268 15.7425C17.3278 15.7425 16.4764 15.7068 16.1777 15.6927C11.5439 15.49 8.08513 14.688 8.08513 13.7278C8.08513 12.7676 11.5439 11.9667 16.1777 11.7608V14.8939C16.4808 14.9156 17.3485 14.9666 18.5475 14.9666C19.9864 14.9666 20.707 14.907 20.8367 14.895V11.763C25.4607 11.9678 28.9119 12.7698 28.9119 13.7278C28.9119 14.6859 25.4618 15.4878 20.8367 15.6916L20.841 15.6927ZM20.841 11.4389V8.63527H27.2942V4.35986H9.72458V8.63527H16.1767V11.4379C10.9324 11.6774 6.98853 12.7102 6.98853 13.9478C6.98853 15.1855 10.9324 16.2172 16.1767 16.4578V25.4421H20.8399V16.4546C26.0722 16.215 30.0095 15.1833 30.0095 13.9467C30.0095 12.7102 26.0755 11.6785 20.8399 11.4379L20.841 11.4389Z" fill="white"/>
</g>
<defs>
<clipPath id="clip0">
<rect width="37" height="32" fill="white"/>
</clipPath>
</defs>
</svg>
