<svg width="32" height="32" viewBox="0 0 32 32" fill="none" xmlns="http://www.w3.org/2000/svg">
<path d="M16 32C24.8667 32 32 24.8667 32 16C32 7.13328 24.8667 0 16 0C7.13328 0 0 7.13328 0 16C0 24.8667 7.13328 32 16 32Z" fill="#2775CA"/>
<path d="M20.4001 18.5333C20.4001 16.2 19.0001 15.4 16.2001 15.0667C14.2001 14.8 13.8001 14.2667 13.8001 13.3333C13.8001 12.3999 14.4668 11.8 15.8001 11.8C17.0001 11.8 17.6668 12.2 18.0001 13.2C18.0668 13.4 18.2668 13.5333 18.4668 13.5333H19.5334C19.8001 13.5333 20.0001 13.3333 20.0001 13.0667V13C19.7334 11.5333 18.5334 10.4 17.0001 10.2667V8.66674C17.0001 8.40002 16.8001 8.20002 16.4668 8.1333H15.4668C15.2001 8.1333 15.0001 8.3333 14.9334 8.66674V10.2C12.9334 10.4667 11.6668 11.8 11.6668 13.4667C11.6668 15.6667 13.0001 16.5333 15.8001 16.8667C17.6668 17.2 18.2668 17.6 18.2668 18.6667C18.2668 19.7335 17.3334 20.4667 16.0668 20.4667C14.3334 20.4667 13.7334 19.7333 13.5334 18.7333C13.4668 18.4667 13.2668 18.3333 13.0668 18.3333H11.9334C11.6668 18.3333 11.4668 18.5333 11.4668 18.8V18.8667C11.7334 20.5333 12.8001 21.7333 15.0001 22.0667V23.6667C15.0001 23.9333 15.2001 24.1333 15.5334 24.2H16.5334C16.8001 24.2 17.0001 24 17.0668 23.6667V22.0667C19.0668 21.7333 20.4001 20.3333 20.4001 18.5333Z" fill="white"/>
<path d="M12.6001 25.5331C7.40008 23.6665 4.73336 17.8665 6.6668 12.7331C7.6668 9.93306 9.8668 7.79978 12.6001 6.79978C12.8668 6.6665 13.0001 6.4665 13.0001 6.13306V5.19978C13.0001 4.93306 12.8668 4.73306 12.6001 4.6665C12.5334 4.6665 12.4001 4.6665 12.3334 4.73306C6.00008 6.73306 2.53336 13.4665 4.53336 19.7998C5.73336 23.5331 8.60008 26.3998 12.3334 27.5998C12.6001 27.7331 12.8668 27.5998 12.9334 27.3331C13.0001 27.2665 13.0001 27.1998 13.0001 27.0665V26.1331C13.0001 25.9331 12.8001 25.6665 12.6001 25.5331ZM19.6668 4.73306C19.4001 4.59978 19.1334 4.73306 19.0668 4.99978C19.0001 5.0665 19.0001 5.13306 19.0001 5.2665V6.19978C19.0001 6.4665 19.2001 6.73306 19.4001 6.8665C24.6001 8.73306 27.2668 14.5331 25.3334 19.6665C24.3334 22.4665 22.1334 24.5998 19.4001 25.5998C19.1334 25.7331 19.0001 25.9331 19.0001 26.2665V27.1998C19.0001 27.4665 19.1334 27.6665 19.4001 27.7331C19.4668 27.7331 19.6001 27.7331 19.6668 27.6665C26.0001 25.6665 29.4668 18.9331 27.4668 12.5998C26.2668 8.79978 23.3334 5.93306 19.6668 4.73306Z" fill="white"/>
</svg>
